<?xml version="1.0" encoding="utf-8" standalone="no"?>
<!DOCTYPE svg PUBLIC "-//W3C//DTD SVG 1.1//EN"
  "http://www.w3.org/Graphics/SVG/1.1/DTD/svg11.dtd">
<!-- Created with matplotlib (https://matplotlib.org/) -->
<svg height="288pt" version="1.1" viewBox="0 0 576 288" width="576pt" xmlns="http://www.w3.org/2000/svg" xmlns:xlink="http://www.w3.org/1999/xlink">
 <defs>
  <style type="text/css">
*{stroke-linecap:butt;stroke-linejoin:round;}
  </style>
 </defs>
 <g id="figure_1">
  <g id="patch_1">
   <path d="M 0 288 
L 576 288 
L 576 0 
L 0 0 
z
" style="fill:#ffffff;"/>
  </g>
  <g id="axes_1">
   <g id="patch_2">
    <path d="M 49.175 256.2 
L 296.5375 256.2 
L 296.5375 28.8 
L 49.175 28.8 
z
" style="fill:#ffffff;"/>
   </g>
   <g id="QuadMesh_1">
    <path clip-path="url(#pe41915c39c)" d="M 49.175 28.8 
L 90.402083 28.8 
L 90.402083 61.285714 
L 49.175 61.285714 
L 49.175 28.8 
" style="fill:#3e51c5;"/>
    <path clip-path="url(#pe41915c39c)" d="M 90.402083 28.8 
L 131.629167 28.8 
L 131.629167 61.285714 
L 90.402083 61.285714 
L 90.402083 28.8 
" style="fill:#cb3e38;"/>
    <path clip-path="url(#pe41915c39c)" d="M 131.629167 28.8 
L 172.85625 28.8 
L 172.85625 61.285714 
L 131.629167 61.285714 
L 131.629167 28.8 
" style="fill:#c1d4f4;"/>
    <path clip-path="url(#pe41915c39c)" d="M 172.85625 28.8 
L 214.083333 28.8 
L 214.083333 61.285714 
L 172.85625 61.285714 
L 172.85625 28.8 
" style="fill:#dc5d4a;"/>
    <path clip-path="url(#pe41915c39c)" d="M 214.083333 28.8 
L 255.310417 28.8 
L 255.310417 61.285714 
L 214.083333 61.285714 
L 214.083333 28.8 
" style="fill:#e3d9d3;"/>
    <path clip-path="url(#pe41915c39c)" d="M 255.310417 28.8 
L 296.5375 28.8 
L 296.5375 61.285714 
L 255.310417 61.285714 
L 255.310417 28.8 
" style="fill:#465ecf;"/>
    <path clip-path="url(#pe41915c39c)" d="M 49.175 61.285714 
L 90.402083 61.285714 
L 90.402083 93.771429 
L 49.175 93.771429 
L 49.175 61.285714 
" style="fill:#4055c8;"/>
    <path clip-path="url(#pe41915c39c)" d="M 90.402083 61.285714 
L 131.629167 61.285714 
L 131.629167 93.771429 
L 90.402083 93.771429 
L 90.402083 61.285714 
" style="fill:#c83836;"/>
    <path clip-path="url(#pe41915c39c)" d="M 131.629167 61.285714 
L 172.85625 61.285714 
L 172.85625 93.771429 
L 131.629167 93.771429 
L 131.629167 61.285714 
" style="fill:#d4dbe6;"/>
    <path clip-path="url(#pe41915c39c)" d="M 172.85625 61.285714 
L 214.083333 61.285714 
L 214.083333 93.771429 
L 172.85625 93.771429 
L 172.85625 61.285714 
" style="fill:#c73635;"/>
    <path clip-path="url(#pe41915c39c)" d="M 214.083333 61.285714 
L 255.310417 61.285714 
L 255.310417 93.771429 
L 214.083333 93.771429 
L 214.083333 61.285714 
" style="fill:#ebd3c6;"/>
    <path clip-path="url(#pe41915c39c)" d="M 255.310417 61.285714 
L 296.5375 61.285714 
L 296.5375 93.771429 
L 255.310417 93.771429 
L 255.310417 61.285714 
" style="fill:#485fd1;"/>
    <path clip-path="url(#pe41915c39c)" d="M 49.175 93.771429 
L 90.402083 93.771429 
L 90.402083 126.257143 
L 49.175 126.257143 
L 49.175 93.771429 
" style="fill:#3f53c6;"/>
    <path clip-path="url(#pe41915c39c)" d="M 90.402083 93.771429 
L 131.629167 93.771429 
L 131.629167 126.257143 
L 90.402083 126.257143 
L 90.402083 93.771429 
" style="fill:#b40426;"/>
    <path clip-path="url(#pe41915c39c)" d="M 131.629167 93.771429 
L 172.85625 93.771429 
L 172.85625 126.257143 
L 131.629167 126.257143 
L 131.629167 93.771429 
" style="fill:#d8dce2;"/>
    <path clip-path="url(#pe41915c39c)" d="M 172.85625 93.771429 
L 214.083333 93.771429 
L 214.083333 126.257143 
L 172.85625 126.257143 
L 172.85625 93.771429 
" style="fill:#c0282f;"/>
    <path clip-path="url(#pe41915c39c)" d="M 214.083333 93.771429 
L 255.310417 93.771429 
L 255.310417 126.257143 
L 214.083333 126.257143 
L 214.083333 93.771429 
" style="fill:#eed0c0;"/>
    <path clip-path="url(#pe41915c39c)" d="M 255.310417 93.771429 
L 296.5375 93.771429 
L 296.5375 126.257143 
L 255.310417 126.257143 
L 255.310417 93.771429 
" style="fill:#4a63d3;"/>
    <path clip-path="url(#pe41915c39c)" d="M 49.175 126.257143 
L 90.402083 126.257143 
L 90.402083 158.742857 
L 49.175 158.742857 
L 49.175 126.257143 
" style="fill:#4055c8;"/>
    <path clip-path="url(#pe41915c39c)" d="M 90.402083 126.257143 
L 131.629167 126.257143 
L 131.629167 158.742857 
L 90.402083 158.742857 
L 90.402083 126.257143 
" style="fill:#c73635;"/>
    <path clip-path="url(#pe41915c39c)" d="M 131.629167 126.257143 
L 172.85625 126.257143 
L 172.85625 158.742857 
L 131.629167 158.742857 
L 131.629167 126.257143 
" style="fill:#dddcdc;"/>
    <path clip-path="url(#pe41915c39c)" d="M 172.85625 126.257143 
L 214.083333 126.257143 
L 214.083333 158.742857 
L 172.85625 158.742857 
L 172.85625 126.257143 
" style="fill:#bd1f2d;"/>
    <path clip-path="url(#pe41915c39c)" d="M 214.083333 126.257143 
L 255.310417 126.257143 
L 255.310417 158.742857 
L 214.083333 158.742857 
L 214.083333 126.257143 
" style="fill:#edd2c3;"/>
    <path clip-path="url(#pe41915c39c)" d="M 255.310417 126.257143 
L 296.5375 126.257143 
L 296.5375 158.742857 
L 255.310417 158.742857 
L 255.310417 126.257143 
" style="fill:#4c66d6;"/>
    <path clip-path="url(#pe41915c39c)" d="M 49.175 158.742857 
L 90.402083 158.742857 
L 90.402083 191.228571 
L 49.175 191.228571 
L 49.175 158.742857 
" style="fill:#4055c8;"/>
    <path clip-path="url(#pe41915c39c)" d="M 90.402083 158.742857 
L 131.629167 158.742857 
L 131.629167 191.228571 
L 90.402083 191.228571 
L 90.402083 158.742857 
" style="fill:#e0654f;"/>
    <path clip-path="url(#pe41915c39c)" d="M 131.629167 158.742857 
L 172.85625 158.742857 
L 172.85625 191.228571 
L 131.629167 191.228571 
L 131.629167 158.742857 
" style="fill:#dbdcde;"/>
    <path clip-path="url(#pe41915c39c)" d="M 172.85625 158.742857 
L 214.083333 158.742857 
L 214.083333 191.228571 
L 172.85625 191.228571 
L 172.85625 158.742857 
" style="fill:#b50927;"/>
    <path clip-path="url(#pe41915c39c)" d="M 214.083333 158.742857 
L 255.310417 158.742857 
L 255.310417 191.228571 
L 214.083333 191.228571 
L 214.083333 158.742857 
" style="fill:#c9d7f0;"/>
    <path clip-path="url(#pe41915c39c)" d="M 255.310417 158.742857 
L 296.5375 158.742857 
L 296.5375 191.228571 
L 255.310417 191.228571 
L 255.310417 158.742857 
" style="fill:#4e68d8;"/>
    <path clip-path="url(#pe41915c39c)" d="M 49.175 191.228571 
L 90.402083 191.228571 
L 90.402083 223.714286 
L 49.175 223.714286 
L 49.175 191.228571 
" style="fill:#3c4ec2;"/>
    <path clip-path="url(#pe41915c39c)" d="M 90.402083 191.228571 
L 131.629167 191.228571 
L 131.629167 223.714286 
L 90.402083 223.714286 
L 90.402083 191.228571 
" style="fill:#5e7de7;"/>
    <path clip-path="url(#pe41915c39c)" d="M 131.629167 191.228571 
L 172.85625 191.228571 
L 172.85625 223.714286 
L 131.629167 223.714286 
L 131.629167 191.228571 
" style="fill:#89acfd;"/>
    <path clip-path="url(#pe41915c39c)" d="M 172.85625 191.228571 
L 214.083333 191.228571 
L 214.083333 223.714286 
L 172.85625 223.714286 
L 172.85625 191.228571 
" style="fill:#a1c0ff;"/>
    <path clip-path="url(#pe41915c39c)" d="M 214.083333 191.228571 
L 255.310417 191.228571 
L 255.310417 223.714286 
L 214.083333 223.714286 
L 214.083333 191.228571 
" style="fill:#7699f6;"/>
    <path clip-path="url(#pe41915c39c)" d="M 255.310417 191.228571 
L 296.5375 191.228571 
L 296.5375 223.714286 
L 255.310417 223.714286 
L 255.310417 191.228571 
" style="fill:#4a63d3;"/>
    <path clip-path="url(#pe41915c39c)" d="M 49.175 223.714286 
L 90.402083 223.714286 
L 90.402083 256.2 
L 49.175 256.2 
L 49.175 223.714286 
" style="fill:#3b4cc0;"/>
    <path clip-path="url(#pe41915c39c)" d="M 90.402083 223.714286 
L 131.629167 223.714286 
L 131.629167 256.2 
L 90.402083 256.2 
L 90.402083 223.714286 
" style="fill:#4c66d6;"/>
    <path clip-path="url(#pe41915c39c)" d="M 131.629167 223.714286 
L 172.85625 223.714286 
L 172.85625 256.2 
L 131.629167 256.2 
L 131.629167 223.714286 
" style="fill:#86a9fc;"/>
    <path clip-path="url(#pe41915c39c)" d="M 172.85625 223.714286 
L 214.083333 223.714286 
L 214.083333 256.2 
L 172.85625 256.2 
L 172.85625 223.714286 
" style="fill:#92b4fe;"/>
    <path clip-path="url(#pe41915c39c)" d="M 214.083333 223.714286 
L 255.310417 223.714286 
L 255.310417 256.2 
L 214.083333 256.2 
L 214.083333 223.714286 
" style="fill:#6788ee;"/>
    <path clip-path="url(#pe41915c39c)" d="M 255.310417 223.714286 
L 296.5375 223.714286 
L 296.5375 256.2 
L 255.310417 256.2 
L 255.310417 223.714286 
" style="fill:#4358cb;"/>
   </g>
   <g id="matplotlib.axis_1">
    <g id="xtick_1">
     <g id="line2d_1">
      <defs>
       <path d="M 0 0 
L 0 3.5 
" id="m43d53e1645" style="stroke:#000000;stroke-width:0.8;"/>
      </defs>
      <g>
       <use style="stroke:#000000;stroke-width:0.8;" x="69.788542" xlink:href="#m43d53e1645" y="256.2"/>
      </g>
     </g>
     <g id="text_1">
      <!-- 0h -->
      <defs>
       <path d="M 31.78125 66.40625 
Q 24.171875 66.40625 20.328125 58.90625 
Q 16.5 51.421875 16.5 36.375 
Q 16.5 21.390625 20.328125 13.890625 
Q 24.171875 6.390625 31.78125 6.390625 
Q 39.453125 6.390625 43.28125 13.890625 
Q 47.125 21.390625 47.125 36.375 
Q 47.125 51.421875 43.28125 58.90625 
Q 39.453125 66.40625 31.78125 66.40625 
z
M 31.78125 74.21875 
Q 44.046875 74.21875 50.515625 64.515625 
Q 56.984375 54.828125 56.984375 36.375 
Q 56.984375 17.96875 50.515625 8.265625 
Q 44.046875 -1.421875 31.78125 -1.421875 
Q 19.53125 -1.421875 13.0625 8.265625 
Q 6.59375 17.96875 6.59375 36.375 
Q 6.59375 54.828125 13.0625 64.515625 
Q 19.53125 74.21875 31.78125 74.21875 
z
" id="DejaVuSans-48"/>
       <path d="M 54.890625 33.015625 
L 54.890625 0 
L 45.90625 0 
L 45.90625 32.71875 
Q 45.90625 40.484375 42.875 44.328125 
Q 39.84375 48.1875 33.796875 48.1875 
Q 26.515625 48.1875 22.3125 43.546875 
Q 18.109375 38.921875 18.109375 30.90625 
L 18.109375 0 
L 9.078125 0 
L 9.078125 75.984375 
L 18.109375 75.984375 
L 18.109375 46.1875 
Q 21.34375 51.125 25.703125 53.5625 
Q 30.078125 56 35.796875 56 
Q 45.21875 56 50.046875 50.171875 
Q 54.890625 44.34375 54.890625 33.015625 
z
" id="DejaVuSans-104"/>
      </defs>
      <g transform="translate(60.898542 273.837812)scale(0.14 -0.14)">
       <use xlink:href="#DejaVuSans-48"/>
       <use x="63.623047" xlink:href="#DejaVuSans-104"/>
      </g>
     </g>
    </g>
    <g id="xtick_2">
     <g id="line2d_2">
      <g>
       <use style="stroke:#000000;stroke-width:0.8;" x="111.015625" xlink:href="#m43d53e1645" y="256.2"/>
      </g>
     </g>
     <g id="text_2">
      <!-- 4h -->
      <defs>
       <path d="M 37.796875 64.3125 
L 12.890625 25.390625 
L 37.796875 25.390625 
z
M 35.203125 72.90625 
L 47.609375 72.90625 
L 47.609375 25.390625 
L 58.015625 25.390625 
L 58.015625 17.1875 
L 47.609375 17.1875 
L 47.609375 0 
L 37.796875 0 
L 37.796875 17.1875 
L 4.890625 17.1875 
L 4.890625 26.703125 
z
" id="DejaVuSans-52"/>
      </defs>
      <g transform="translate(102.125625 273.837812)scale(0.14 -0.14)">
       <use xlink:href="#DejaVuSans-52"/>
       <use x="63.623047" xlink:href="#DejaVuSans-104"/>
      </g>
     </g>
    </g>
    <g id="xtick_3">
     <g id="line2d_3">
      <g>
       <use style="stroke:#000000;stroke-width:0.8;" x="152.242708" xlink:href="#m43d53e1645" y="256.2"/>
      </g>
     </g>
     <g id="text_3">
      <!-- 8h -->
      <defs>
       <path d="M 31.78125 34.625 
Q 24.75 34.625 20.71875 30.859375 
Q 16.703125 27.09375 16.703125 20.515625 
Q 16.703125 13.921875 20.71875 10.15625 
Q 24.75 6.390625 31.78125 6.390625 
Q 38.8125 6.390625 42.859375 10.171875 
Q 46.921875 13.96875 46.921875 20.515625 
Q 46.921875 27.09375 42.890625 30.859375 
Q 38.875 34.625 31.78125 34.625 
z
M 21.921875 38.8125 
Q 15.578125 40.375 12.03125 44.71875 
Q 8.5 49.078125 8.5 55.328125 
Q 8.5 64.0625 14.71875 69.140625 
Q 20.953125 74.21875 31.78125 74.21875 
Q 42.671875 74.21875 48.875 69.140625 
Q 55.078125 64.0625 55.078125 55.328125 
Q 55.078125 49.078125 51.53125 44.71875 
Q 48 40.375 41.703125 38.8125 
Q 48.828125 37.15625 52.796875 32.3125 
Q 56.78125 27.484375 56.78125 20.515625 
Q 56.78125 9.90625 50.3125 4.234375 
Q 43.84375 -1.421875 31.78125 -1.421875 
Q 19.734375 -1.421875 13.25 4.234375 
Q 6.78125 9.90625 6.78125 20.515625 
Q 6.78125 27.484375 10.78125 32.3125 
Q 14.796875 37.15625 21.921875 38.8125 
z
M 18.3125 54.390625 
Q 18.3125 48.734375 21.84375 45.5625 
Q 25.390625 42.390625 31.78125 42.390625 
Q 38.140625 42.390625 41.71875 45.5625 
Q 45.3125 48.734375 45.3125 54.390625 
Q 45.3125 60.0625 41.71875 63.234375 
Q 38.140625 66.40625 31.78125 66.40625 
Q 25.390625 66.40625 21.84375 63.234375 
Q 18.3125 60.0625 18.3125 54.390625 
z
" id="DejaVuSans-56"/>
      </defs>
      <g transform="translate(143.352708 273.837812)scale(0.14 -0.14)">
       <use xlink:href="#DejaVuSans-56"/>
       <use x="63.623047" xlink:href="#DejaVuSans-104"/>
      </g>
     </g>
    </g>
    <g id="xtick_4">
     <g id="line2d_4">
      <g>
       <use style="stroke:#000000;stroke-width:0.8;" x="193.469792" xlink:href="#m43d53e1645" y="256.2"/>
      </g>
     </g>
     <g id="text_4">
      <!-- 12h -->
      <defs>
       <path d="M 12.40625 8.296875 
L 28.515625 8.296875 
L 28.515625 63.921875 
L 10.984375 60.40625 
L 10.984375 69.390625 
L 28.421875 72.90625 
L 38.28125 72.90625 
L 38.28125 8.296875 
L 54.390625 8.296875 
L 54.390625 0 
L 12.40625 0 
z
" id="DejaVuSans-49"/>
       <path d="M 19.1875 8.296875 
L 53.609375 8.296875 
L 53.609375 0 
L 7.328125 0 
L 7.328125 8.296875 
Q 12.9375 14.109375 22.625 23.890625 
Q 32.328125 33.6875 34.8125 36.53125 
Q 39.546875 41.84375 41.421875 45.53125 
Q 43.3125 49.21875 43.3125 52.78125 
Q 43.3125 58.59375 39.234375 62.25 
Q 35.15625 65.921875 28.609375 65.921875 
Q 23.96875 65.921875 18.8125 64.3125 
Q 13.671875 62.703125 7.8125 59.421875 
L 7.8125 69.390625 
Q 13.765625 71.78125 18.9375 73 
Q 24.125 74.21875 28.421875 74.21875 
Q 39.75 74.21875 46.484375 68.546875 
Q 53.21875 62.890625 53.21875 53.421875 
Q 53.21875 48.921875 51.53125 44.890625 
Q 49.859375 40.875 45.40625 35.40625 
Q 44.1875 33.984375 37.640625 27.21875 
Q 31.109375 20.453125 19.1875 8.296875 
z
" id="DejaVuSans-50"/>
      </defs>
      <g transform="translate(180.126042 273.837812)scale(0.14 -0.14)">
       <use xlink:href="#DejaVuSans-49"/>
       <use x="63.623047" xlink:href="#DejaVuSans-50"/>
       <use x="127.246094" xlink:href="#DejaVuSans-104"/>
      </g>
     </g>
    </g>
    <g id="xtick_5">
     <g id="line2d_5">
      <g>
       <use style="stroke:#000000;stroke-width:0.8;" x="234.696875" xlink:href="#m43d53e1645" y="256.2"/>
      </g>
     </g>
     <g id="text_5">
      <!-- 16h -->
      <defs>
       <path d="M 33.015625 40.375 
Q 26.375 40.375 22.484375 35.828125 
Q 18.609375 31.296875 18.609375 23.390625 
Q 18.609375 15.53125 22.484375 10.953125 
Q 26.375 6.390625 33.015625 6.390625 
Q 39.65625 6.390625 43.53125 10.953125 
Q 47.40625 15.53125 47.40625 23.390625 
Q 47.40625 31.296875 43.53125 35.828125 
Q 39.65625 40.375 33.015625 40.375 
z
M 52.59375 71.296875 
L 52.59375 62.3125 
Q 48.875 64.0625 45.09375 64.984375 
Q 41.3125 65.921875 37.59375 65.921875 
Q 27.828125 65.921875 22.671875 59.328125 
Q 17.53125 52.734375 16.796875 39.40625 
Q 19.671875 43.65625 24.015625 45.921875 
Q 28.375 48.1875 33.59375 48.1875 
Q 44.578125 48.1875 50.953125 41.515625 
Q 57.328125 34.859375 57.328125 23.390625 
Q 57.328125 12.15625 50.6875 5.359375 
Q 44.046875 -1.421875 33.015625 -1.421875 
Q 20.359375 -1.421875 13.671875 8.265625 
Q 6.984375 17.96875 6.984375 36.375 
Q 6.984375 53.65625 15.1875 63.9375 
Q 23.390625 74.21875 37.203125 74.21875 
Q 40.921875 74.21875 44.703125 73.484375 
Q 48.484375 72.75 52.59375 71.296875 
z
" id="DejaVuSans-54"/>
      </defs>
      <g transform="translate(221.353125 273.837812)scale(0.14 -0.14)">
       <use xlink:href="#DejaVuSans-49"/>
       <use x="63.623047" xlink:href="#DejaVuSans-54"/>
       <use x="127.246094" xlink:href="#DejaVuSans-104"/>
      </g>
     </g>
    </g>
    <g id="xtick_6">
     <g id="line2d_6">
      <g>
       <use style="stroke:#000000;stroke-width:0.8;" x="275.923958" xlink:href="#m43d53e1645" y="256.2"/>
      </g>
     </g>
     <g id="text_6">
      <!-- 20h -->
      <g transform="translate(262.580208 273.837812)scale(0.14 -0.14)">
       <use xlink:href="#DejaVuSans-50"/>
       <use x="63.623047" xlink:href="#DejaVuSans-48"/>
       <use x="127.246094" xlink:href="#DejaVuSans-104"/>
      </g>
     </g>
    </g>
   </g>
   <g id="matplotlib.axis_2">
    <g id="ytick_1">
     <g id="line2d_7">
      <defs>
       <path d="M 0 0 
L -3.5 0 
" id="m51821f7b63" style="stroke:#000000;stroke-width:0.8;"/>
      </defs>
      <g>
       <use style="stroke:#000000;stroke-width:0.8;" x="49.175" xlink:href="#m51821f7b63" y="45.042857"/>
      </g>
     </g>
     <g id="text_7">
      <!-- Mon -->
      <defs>
       <path d="M 9.8125 72.90625 
L 24.515625 72.90625 
L 43.109375 23.296875 
L 61.8125 72.90625 
L 76.515625 72.90625 
L 76.515625 0 
L 66.890625 0 
L 66.890625 64.015625 
L 48.09375 14.015625 
L 38.1875 14.015625 
L 19.390625 64.015625 
L 19.390625 0 
L 9.8125 0 
z
" id="DejaVuSans-77"/>
       <path d="M 30.609375 48.390625 
Q 23.390625 48.390625 19.1875 42.75 
Q 14.984375 37.109375 14.984375 27.296875 
Q 14.984375 17.484375 19.15625 11.84375 
Q 23.34375 6.203125 30.609375 6.203125 
Q 37.796875 6.203125 41.984375 11.859375 
Q 46.1875 17.53125 46.1875 27.296875 
Q 46.1875 37.015625 41.984375 42.703125 
Q 37.796875 48.390625 30.609375 48.390625 
z
M 30.609375 56 
Q 42.328125 56 49.015625 48.375 
Q 55.71875 40.765625 55.71875 27.296875 
Q 55.71875 13.875 49.015625 6.21875 
Q 42.328125 -1.421875 30.609375 -1.421875 
Q 18.84375 -1.421875 12.171875 6.21875 
Q 5.515625 13.875 5.515625 27.296875 
Q 5.515625 40.765625 12.171875 48.375 
Q 18.84375 56 30.609375 56 
z
" id="DejaVuSans-111"/>
       <path d="M 54.890625 33.015625 
L 54.890625 0 
L 45.90625 0 
L 45.90625 32.71875 
Q 45.90625 40.484375 42.875 44.328125 
Q 39.84375 48.1875 33.796875 48.1875 
Q 26.515625 48.1875 22.3125 43.546875 
Q 18.109375 38.921875 18.109375 30.90625 
L 18.109375 0 
L 9.078125 0 
L 9.078125 54.6875 
L 18.109375 54.6875 
L 18.109375 46.1875 
Q 21.34375 51.125 25.703125 53.5625 
Q 30.078125 56 35.796875 56 
Q 45.21875 56 50.046875 50.171875 
Q 54.890625 44.34375 54.890625 33.015625 
z
" id="DejaVuSans-110"/>
      </defs>
      <g transform="translate(12.656875 50.361763)scale(0.14 -0.14)">
       <use xlink:href="#DejaVuSans-77"/>
       <use x="86.279297" xlink:href="#DejaVuSans-111"/>
       <use x="147.460938" xlink:href="#DejaVuSans-110"/>
      </g>
     </g>
    </g>
    <g id="ytick_2">
     <g id="line2d_8">
      <g>
       <use style="stroke:#000000;stroke-width:0.8;" x="49.175" xlink:href="#m51821f7b63" y="77.528571"/>
      </g>
     </g>
     <g id="text_8">
      <!-- Tue -->
      <defs>
       <path d="M -0.296875 72.90625 
L 61.375 72.90625 
L 61.375 64.59375 
L 35.5 64.59375 
L 35.5 0 
L 25.59375 0 
L 25.59375 64.59375 
L -0.296875 64.59375 
z
" id="DejaVuSans-84"/>
       <path d="M 8.5 21.578125 
L 8.5 54.6875 
L 17.484375 54.6875 
L 17.484375 21.921875 
Q 17.484375 14.15625 20.5 10.265625 
Q 23.53125 6.390625 29.59375 6.390625 
Q 36.859375 6.390625 41.078125 11.03125 
Q 45.3125 15.671875 45.3125 23.6875 
L 45.3125 54.6875 
L 54.296875 54.6875 
L 54.296875 0 
L 45.3125 0 
L 45.3125 8.40625 
Q 42.046875 3.421875 37.71875 1 
Q 33.40625 -1.421875 27.6875 -1.421875 
Q 18.265625 -1.421875 13.375 4.4375 
Q 8.5 10.296875 8.5 21.578125 
z
M 31.109375 56 
z
" id="DejaVuSans-117"/>
       <path d="M 56.203125 29.59375 
L 56.203125 25.203125 
L 14.890625 25.203125 
Q 15.484375 15.921875 20.484375 11.0625 
Q 25.484375 6.203125 34.421875 6.203125 
Q 39.59375 6.203125 44.453125 7.46875 
Q 49.3125 8.734375 54.109375 11.28125 
L 54.109375 2.78125 
Q 49.265625 0.734375 44.1875 -0.34375 
Q 39.109375 -1.421875 33.890625 -1.421875 
Q 20.796875 -1.421875 13.15625 6.1875 
Q 5.515625 13.8125 5.515625 26.8125 
Q 5.515625 40.234375 12.765625 48.109375 
Q 20.015625 56 32.328125 56 
Q 43.359375 56 49.78125 48.890625 
Q 56.203125 41.796875 56.203125 29.59375 
z
M 47.21875 32.234375 
Q 47.125 39.59375 43.09375 43.984375 
Q 39.0625 48.390625 32.421875 48.390625 
Q 24.90625 48.390625 20.390625 44.140625 
Q 15.875 39.890625 15.1875 32.171875 
z
" id="DejaVuSans-101"/>
      </defs>
      <g transform="translate(16.17 82.847478)scale(0.14 -0.14)">
       <use xlink:href="#DejaVuSans-84"/>
       <use x="60.849609" xlink:href="#DejaVuSans-117"/>
       <use x="124.228516" xlink:href="#DejaVuSans-101"/>
      </g>
     </g>
    </g>
    <g id="ytick_3">
     <g id="line2d_9">
      <g>
       <use style="stroke:#000000;stroke-width:0.8;" x="49.175" xlink:href="#m51821f7b63" y="110.014286"/>
      </g>
     </g>
     <g id="text_9">
      <!-- Wed -->
      <defs>
       <path d="M 3.328125 72.90625 
L 13.28125 72.90625 
L 28.609375 11.28125 
L 43.890625 72.90625 
L 54.984375 72.90625 
L 70.3125 11.28125 
L 85.59375 72.90625 
L 95.609375 72.90625 
L 77.296875 0 
L 64.890625 0 
L 49.515625 63.28125 
L 33.984375 0 
L 21.578125 0 
z
" id="DejaVuSans-87"/>
       <path d="M 45.40625 46.390625 
L 45.40625 75.984375 
L 54.390625 75.984375 
L 54.390625 0 
L 45.40625 0 
L 45.40625 8.203125 
Q 42.578125 3.328125 38.25 0.953125 
Q 33.9375 -1.421875 27.875 -1.421875 
Q 17.96875 -1.421875 11.734375 6.484375 
Q 5.515625 14.40625 5.515625 27.296875 
Q 5.515625 40.1875 11.734375 48.09375 
Q 17.96875 56 27.875 56 
Q 33.9375 56 38.25 53.625 
Q 42.578125 51.265625 45.40625 46.390625 
z
M 14.796875 27.296875 
Q 14.796875 17.390625 18.875 11.75 
Q 22.953125 6.109375 30.078125 6.109375 
Q 37.203125 6.109375 41.296875 11.75 
Q 45.40625 17.390625 45.40625 27.296875 
Q 45.40625 37.203125 41.296875 42.84375 
Q 37.203125 48.484375 30.078125 48.484375 
Q 22.953125 48.484375 18.875 42.84375 
Q 14.796875 37.203125 14.796875 27.296875 
z
" id="DejaVuSans-100"/>
      </defs>
      <g transform="translate(10.84125 115.333192)scale(0.14 -0.14)">
       <use xlink:href="#DejaVuSans-87"/>
       <use x="98.798828" xlink:href="#DejaVuSans-101"/>
       <use x="160.322266" xlink:href="#DejaVuSans-100"/>
      </g>
     </g>
    </g>
    <g id="ytick_4">
     <g id="line2d_10">
      <g>
       <use style="stroke:#000000;stroke-width:0.8;" x="49.175" xlink:href="#m51821f7b63" y="142.5"/>
      </g>
     </g>
     <g id="text_10">
      <!-- Thu -->
      <g transform="translate(15.879063 147.818906)scale(0.14 -0.14)">
       <use xlink:href="#DejaVuSans-84"/>
       <use x="61.083984" xlink:href="#DejaVuSans-104"/>
       <use x="124.462891" xlink:href="#DejaVuSans-117"/>
      </g>
     </g>
    </g>
    <g id="ytick_5">
     <g id="line2d_11">
      <g>
       <use style="stroke:#000000;stroke-width:0.8;" x="49.175" xlink:href="#m51821f7b63" y="174.985714"/>
      </g>
     </g>
     <g id="text_11">
      <!-- Fri -->
      <defs>
       <path d="M 9.8125 72.90625 
L 51.703125 72.90625 
L 51.703125 64.59375 
L 19.671875 64.59375 
L 19.671875 43.109375 
L 48.578125 43.109375 
L 48.578125 34.8125 
L 19.671875 34.8125 
L 19.671875 0 
L 9.8125 0 
z
" id="DejaVuSans-70"/>
       <path d="M 41.109375 46.296875 
Q 39.59375 47.171875 37.8125 47.578125 
Q 36.03125 48 33.890625 48 
Q 26.265625 48 22.1875 43.046875 
Q 18.109375 38.09375 18.109375 28.8125 
L 18.109375 0 
L 9.078125 0 
L 9.078125 54.6875 
L 18.109375 54.6875 
L 18.109375 46.1875 
Q 20.953125 51.171875 25.484375 53.578125 
Q 30.03125 56 36.53125 56 
Q 37.453125 56 38.578125 55.875 
Q 39.703125 55.765625 41.0625 55.515625 
z
" id="DejaVuSans-114"/>
       <path d="M 9.421875 54.6875 
L 18.40625 54.6875 
L 18.40625 0 
L 9.421875 0 
z
M 9.421875 75.984375 
L 18.40625 75.984375 
L 18.40625 64.59375 
L 9.421875 64.59375 
z
" id="DejaVuSans-105"/>
      </defs>
      <g transform="translate(24.493438 180.304621)scale(0.14 -0.14)">
       <use xlink:href="#DejaVuSans-70"/>
       <use x="57.410156" xlink:href="#DejaVuSans-114"/>
       <use x="98.523438" xlink:href="#DejaVuSans-105"/>
      </g>
     </g>
    </g>
    <g id="ytick_6">
     <g id="line2d_12">
      <g>
       <use style="stroke:#000000;stroke-width:0.8;" x="49.175" xlink:href="#m51821f7b63" y="207.471429"/>
      </g>
     </g>
     <g id="text_12">
      <!-- Sat -->
      <defs>
       <path d="M 53.515625 70.515625 
L 53.515625 60.890625 
Q 47.90625 63.578125 42.921875 64.890625 
Q 37.9375 66.21875 33.296875 66.21875 
Q 25.25 66.21875 20.875 63.09375 
Q 16.5 59.96875 16.5 54.203125 
Q 16.5 49.359375 19.40625 46.890625 
Q 22.3125 44.4375 30.421875 42.921875 
L 36.375 41.703125 
Q 47.40625 39.59375 52.65625 34.296875 
Q 57.90625 29 57.90625 20.125 
Q 57.90625 9.515625 50.796875 4.046875 
Q 43.703125 -1.421875 29.984375 -1.421875 
Q 24.8125 -1.421875 18.96875 -0.25 
Q 13.140625 0.921875 6.890625 3.21875 
L 6.890625 13.375 
Q 12.890625 10.015625 18.65625 8.296875 
Q 24.421875 6.59375 29.984375 6.59375 
Q 38.421875 6.59375 43.015625 9.90625 
Q 47.609375 13.234375 47.609375 19.390625 
Q 47.609375 24.75 44.3125 27.78125 
Q 41.015625 30.8125 33.5 32.328125 
L 27.484375 33.5 
Q 16.453125 35.6875 11.515625 40.375 
Q 6.59375 45.0625 6.59375 53.421875 
Q 6.59375 63.09375 13.40625 68.65625 
Q 20.21875 74.21875 32.171875 74.21875 
Q 37.3125 74.21875 42.625 73.28125 
Q 47.953125 72.359375 53.515625 70.515625 
z
" id="DejaVuSans-83"/>
       <path d="M 34.28125 27.484375 
Q 23.390625 27.484375 19.1875 25 
Q 14.984375 22.515625 14.984375 16.5 
Q 14.984375 11.71875 18.140625 8.90625 
Q 21.296875 6.109375 26.703125 6.109375 
Q 34.1875 6.109375 38.703125 11.40625 
Q 43.21875 16.703125 43.21875 25.484375 
L 43.21875 27.484375 
z
M 52.203125 31.203125 
L 52.203125 0 
L 43.21875 0 
L 43.21875 8.296875 
Q 40.140625 3.328125 35.546875 0.953125 
Q 30.953125 -1.421875 24.3125 -1.421875 
Q 15.921875 -1.421875 10.953125 3.296875 
Q 6 8.015625 6 15.921875 
Q 6 25.140625 12.171875 29.828125 
Q 18.359375 34.515625 30.609375 34.515625 
L 43.21875 34.515625 
L 43.21875 35.40625 
Q 43.21875 41.609375 39.140625 45 
Q 35.0625 48.390625 27.6875 48.390625 
Q 23 48.390625 18.546875 47.265625 
Q 14.109375 46.140625 10.015625 43.890625 
L 10.015625 52.203125 
Q 14.9375 54.109375 19.578125 55.046875 
Q 24.21875 56 28.609375 56 
Q 40.484375 56 46.34375 49.84375 
Q 52.203125 43.703125 52.203125 31.203125 
z
" id="DejaVuSans-97"/>
       <path d="M 18.3125 70.21875 
L 18.3125 54.6875 
L 36.8125 54.6875 
L 36.8125 47.703125 
L 18.3125 47.703125 
L 18.3125 18.015625 
Q 18.3125 11.328125 20.140625 9.421875 
Q 21.96875 7.515625 27.59375 7.515625 
L 36.8125 7.515625 
L 36.8125 0 
L 27.59375 0 
Q 17.1875 0 13.234375 3.875 
Q 9.28125 7.765625 9.28125 18.015625 
L 9.28125 47.703125 
L 2.6875 47.703125 
L 2.6875 54.6875 
L 9.28125 54.6875 
L 9.28125 70.21875 
z
" id="DejaVuSans-116"/>
      </defs>
      <g transform="translate(19.219375 212.790335)scale(0.14 -0.14)">
       <use xlink:href="#DejaVuSans-83"/>
       <use x="63.476562" xlink:href="#DejaVuSans-97"/>
       <use x="124.755859" xlink:href="#DejaVuSans-116"/>
      </g>
     </g>
    </g>
    <g id="ytick_7">
     <g id="line2d_13">
      <g>
       <use style="stroke:#000000;stroke-width:0.8;" x="49.175" xlink:href="#m51821f7b63" y="239.957143"/>
      </g>
     </g>
     <g id="text_13">
      <!-- Sun -->
      <g transform="translate(15.542188 245.276049)scale(0.14 -0.14)">
       <use xlink:href="#DejaVuSans-83"/>
       <use x="63.476562" xlink:href="#DejaVuSans-117"/>
       <use x="126.855469" xlink:href="#DejaVuSans-110"/>
      </g>
     </g>
    </g>
   </g>
   <g id="text_14">
    <!-- down-4h -->
    <defs>
     <path d="M 4.203125 54.6875 
L 13.1875 54.6875 
L 24.421875 12.015625 
L 35.59375 54.6875 
L 46.1875 54.6875 
L 57.421875 12.015625 
L 68.609375 54.6875 
L 77.59375 54.6875 
L 63.28125 0 
L 52.6875 0 
L 40.921875 44.828125 
L 29.109375 0 
L 18.5 0 
z
" id="DejaVuSans-119"/>
     <path d="M 4.890625 31.390625 
L 31.203125 31.390625 
L 31.203125 23.390625 
L 4.890625 23.390625 
z
" id="DejaVuSans-45"/>
    </defs>
    <g transform="translate(138.22375 22.8)scale(0.16 -0.16)">
     <use xlink:href="#DejaVuSans-100"/>
     <use x="63.476562" xlink:href="#DejaVuSans-111"/>
     <use x="124.658203" xlink:href="#DejaVuSans-119"/>
     <use x="206.445312" xlink:href="#DejaVuSans-110"/>
     <use x="269.824219" xlink:href="#DejaVuSans-45"/>
     <use x="305.908203" xlink:href="#DejaVuSans-52"/>
     <use x="369.53125" xlink:href="#DejaVuSans-104"/>
    </g>
   </g>
  </g>
  <g id="axes_2">
   <g id="patch_3">
    <path d="M 314.3375 256.2 
L 561.7 256.2 
L 561.7 28.8 
L 314.3375 28.8 
z
" style="fill:#ffffff;"/>
   </g>
   <g id="QuadMesh_2">
    <path clip-path="url(#p17de25de3d)" d="M 314.3375 28.8 
L 355.564583 28.8 
L 355.564583 61.285714 
L 314.3375 61.285714 
L 314.3375 28.8 
" style="fill:#3b4cc0;"/>
    <path clip-path="url(#p17de25de3d)" d="M 355.564583 28.8 
L 396.791667 28.8 
L 396.791667 61.285714 
L 355.564583 61.285714 
L 355.564583 28.8 
" style="fill:#e5d8d1;"/>
    <path clip-path="url(#p17de25de3d)" d="M 396.791667 28.8 
L 438.01875 28.8 
L 438.01875 61.285714 
L 396.791667 61.285714 
L 396.791667 28.8 
" style="fill:#f5c1a9;"/>
    <path clip-path="url(#p17de25de3d)" d="M 438.01875 28.8 
L 479.245833 28.8 
L 479.245833 61.285714 
L 438.01875 61.285714 
L 438.01875 28.8 
" style="fill:#f2c9b4;"/>
    <path clip-path="url(#p17de25de3d)" d="M 479.245833 28.8 
L 520.472917 28.8 
L 520.472917 61.285714 
L 479.245833 61.285714 
L 479.245833 28.8 
" style="fill:#cb3e38;"/>
    <path clip-path="url(#p17de25de3d)" d="M 520.472917 28.8 
L 561.7 28.8 
L 561.7 61.285714 
L 520.472917 61.285714 
L 520.472917 28.8 
" style="fill:#9bbcff;"/>
    <path clip-path="url(#p17de25de3d)" d="M 314.3375 61.285714 
L 355.564583 61.285714 
L 355.564583 93.771429 
L 314.3375 93.771429 
L 314.3375 61.285714 
" style="fill:#3b4cc0;"/>
    <path clip-path="url(#p17de25de3d)" d="M 355.564583 61.285714 
L 396.791667 61.285714 
L 396.791667 93.771429 
L 355.564583 93.771429 
L 355.564583 61.285714 
" style="fill:#e2dad5;"/>
    <path clip-path="url(#p17de25de3d)" d="M 396.791667 61.285714 
L 438.01875 61.285714 
L 438.01875 93.771429 
L 396.791667 93.771429 
L 396.791667 61.285714 
" style="fill:#f7b599;"/>
    <path clip-path="url(#p17de25de3d)" d="M 438.01875 61.285714 
L 479.245833 61.285714 
L 479.245833 93.771429 
L 438.01875 93.771429 
L 438.01875 61.285714 
" style="fill:#f6bda2;"/>
    <path clip-path="url(#p17de25de3d)" d="M 479.245833 61.285714 
L 520.472917 61.285714 
L 520.472917 93.771429 
L 479.245833 93.771429 
L 479.245833 61.285714 
" style="fill:#c12b30;"/>
    <path clip-path="url(#p17de25de3d)" d="M 520.472917 61.285714 
L 561.7 61.285714 
L 561.7 93.771429 
L 520.472917 93.771429 
L 520.472917 61.285714 
" style="fill:#afcafc;"/>
    <path clip-path="url(#p17de25de3d)" d="M 314.3375 93.771429 
L 355.564583 93.771429 
L 355.564583 126.257143 
L 314.3375 126.257143 
L 314.3375 93.771429 
" style="fill:#3c4ec2;"/>
    <path clip-path="url(#p17de25de3d)" d="M 355.564583 93.771429 
L 396.791667 93.771429 
L 396.791667 126.257143 
L 355.564583 126.257143 
L 355.564583 93.771429 
" style="fill:#e2dad5;"/>
    <path clip-path="url(#p17de25de3d)" d="M 396.791667 93.771429 
L 438.01875 93.771429 
L 438.01875 126.257143 
L 396.791667 126.257143 
L 396.791667 93.771429 
" style="fill:#f7ac8e;"/>
    <path clip-path="url(#p17de25de3d)" d="M 438.01875 93.771429 
L 479.245833 93.771429 
L 479.245833 126.257143 
L 438.01875 126.257143 
L 438.01875 93.771429 
" style="fill:#f7b79b;"/>
    <path clip-path="url(#p17de25de3d)" d="M 479.245833 93.771429 
L 520.472917 93.771429 
L 520.472917 126.257143 
L 479.245833 126.257143 
L 479.245833 93.771429 
" style="fill:#b40426;"/>
    <path clip-path="url(#p17de25de3d)" d="M 520.472917 93.771429 
L 561.7 93.771429 
L 561.7 126.257143 
L 520.472917 126.257143 
L 520.472917 93.771429 
" style="fill:#b6cefa;"/>
    <path clip-path="url(#p17de25de3d)" d="M 314.3375 126.257143 
L 355.564583 126.257143 
L 355.564583 158.742857 
L 314.3375 158.742857 
L 314.3375 126.257143 
" style="fill:#3d50c3;"/>
    <path clip-path="url(#p17de25de3d)" d="M 355.564583 126.257143 
L 396.791667 126.257143 
L 396.791667 158.742857 
L 355.564583 158.742857 
L 355.564583 126.257143 
" style="fill:#e2dad5;"/>
    <path clip-path="url(#p17de25de3d)" d="M 396.791667 126.257143 
L 438.01875 126.257143 
L 438.01875 158.742857 
L 396.791667 158.742857 
L 396.791667 126.257143 
" style="fill:#f7a98b;"/>
    <path clip-path="url(#p17de25de3d)" d="M 438.01875 126.257143 
L 479.245833 126.257143 
L 479.245833 158.742857 
L 438.01875 158.742857 
L 438.01875 126.257143 
" style="fill:#f7b396;"/>
    <path clip-path="url(#p17de25de3d)" d="M 479.245833 126.257143 
L 520.472917 126.257143 
L 520.472917 158.742857 
L 479.245833 158.742857 
L 479.245833 126.257143 
" style="fill:#bb1b2c;"/>
    <path clip-path="url(#p17de25de3d)" d="M 520.472917 126.257143 
L 561.7 126.257143 
L 561.7 158.742857 
L 520.472917 158.742857 
L 520.472917 126.257143 
" style="fill:#aec9fc;"/>
    <path clip-path="url(#p17de25de3d)" d="M 314.3375 158.742857 
L 355.564583 158.742857 
L 355.564583 191.228571 
L 314.3375 191.228571 
L 314.3375 158.742857 
" style="fill:#3f53c6;"/>
    <path clip-path="url(#p17de25de3d)" d="M 355.564583 158.742857 
L 396.791667 158.742857 
L 396.791667 191.228571 
L 355.564583 191.228571 
L 355.564583 158.742857 
" style="fill:#d6dce4;"/>
    <path clip-path="url(#p17de25de3d)" d="M 396.791667 158.742857 
L 438.01875 158.742857 
L 438.01875 191.228571 
L 396.791667 191.228571 
L 396.791667 158.742857 
" style="fill:#f6bda2;"/>
    <path clip-path="url(#p17de25de3d)" d="M 438.01875 158.742857 
L 479.245833 158.742857 
L 479.245833 191.228571 
L 438.01875 191.228571 
L 438.01875 158.742857 
" style="fill:#f7a98b;"/>
    <path clip-path="url(#p17de25de3d)" d="M 479.245833 158.742857 
L 520.472917 158.742857 
L 520.472917 191.228571 
L 479.245833 191.228571 
L 479.245833 158.742857 
" style="fill:#e26952;"/>
    <path clip-path="url(#p17de25de3d)" d="M 520.472917 158.742857 
L 561.7 158.742857 
L 561.7 191.228571 
L 520.472917 191.228571 
L 520.472917 158.742857 
" style="fill:#aac7fd;"/>
    <path clip-path="url(#p17de25de3d)" d="M 314.3375 191.228571 
L 355.564583 191.228571 
L 355.564583 223.714286 
L 314.3375 223.714286 
L 314.3375 191.228571 
" style="fill:#485fd1;"/>
    <path clip-path="url(#p17de25de3d)" d="M 355.564583 191.228571 
L 396.791667 191.228571 
L 396.791667 223.714286 
L 355.564583 223.714286 
L 355.564583 191.228571 
" style="fill:#6180e9;"/>
    <path clip-path="url(#p17de25de3d)" d="M 396.791667 191.228571 
L 438.01875 191.228571 
L 438.01875 223.714286 
L 396.791667 223.714286 
L 396.791667 191.228571 
" style="fill:#b6cefa;"/>
    <path clip-path="url(#p17de25de3d)" d="M 438.01875 191.228571 
L 479.245833 191.228571 
L 479.245833 223.714286 
L 438.01875 223.714286 
L 438.01875 191.228571 
" style="fill:#dedcdb;"/>
    <path clip-path="url(#p17de25de3d)" d="M 479.245833 191.228571 
L 520.472917 191.228571 
L 520.472917 223.714286 
L 479.245833 223.714286 
L 479.245833 191.228571 
" style="fill:#d6dce4;"/>
    <path clip-path="url(#p17de25de3d)" d="M 520.472917 191.228571 
L 561.7 191.228571 
L 561.7 223.714286 
L 520.472917 223.714286 
L 520.472917 191.228571 
" style="fill:#a2c1ff;"/>
    <path clip-path="url(#p17de25de3d)" d="M 314.3375 223.714286 
L 355.564583 223.714286 
L 355.564583 256.2 
L 314.3375 256.2 
L 314.3375 223.714286 
" style="fill:#465ecf;"/>
    <path clip-path="url(#p17de25de3d)" d="M 355.564583 223.714286 
L 396.791667 223.714286 
L 396.791667 256.2 
L 355.564583 256.2 
L 355.564583 223.714286 
" style="fill:#4e68d8;"/>
    <path clip-path="url(#p17de25de3d)" d="M 396.791667 223.714286 
L 438.01875 223.714286 
L 438.01875 256.2 
L 396.791667 256.2 
L 396.791667 223.714286 
" style="fill:#93b5fe;"/>
    <path clip-path="url(#p17de25de3d)" d="M 438.01875 223.714286 
L 479.245833 223.714286 
L 479.245833 256.2 
L 438.01875 256.2 
L 438.01875 223.714286 
" style="fill:#c9d7f0;"/>
    <path clip-path="url(#p17de25de3d)" d="M 479.245833 223.714286 
L 520.472917 223.714286 
L 520.472917 256.2 
L 479.245833 256.2 
L 479.245833 223.714286 
" style="fill:#c0d4f5;"/>
    <path clip-path="url(#p17de25de3d)" d="M 520.472917 223.714286 
L 561.7 223.714286 
L 561.7 256.2 
L 520.472917 256.2 
L 520.472917 223.714286 
" style="fill:#80a3fa;"/>
   </g>
   <g id="matplotlib.axis_3">
    <g id="xtick_7">
     <g id="line2d_14">
      <g>
       <use style="stroke:#000000;stroke-width:0.8;" x="334.951042" xlink:href="#m43d53e1645" y="256.2"/>
      </g>
     </g>
     <g id="text_15">
      <!-- 0h -->
      <g transform="translate(326.061042 273.837812)scale(0.14 -0.14)">
       <use xlink:href="#DejaVuSans-48"/>
       <use x="63.623047" xlink:href="#DejaVuSans-104"/>
      </g>
     </g>
    </g>
    <g id="xtick_8">
     <g id="line2d_15">
      <g>
       <use style="stroke:#000000;stroke-width:0.8;" x="376.178125" xlink:href="#m43d53e1645" y="256.2"/>
      </g>
     </g>
     <g id="text_16">
      <!-- 4h -->
      <g transform="translate(367.288125 273.837812)scale(0.14 -0.14)">
       <use xlink:href="#DejaVuSans-52"/>
       <use x="63.623047" xlink:href="#DejaVuSans-104"/>
      </g>
     </g>
    </g>
    <g id="xtick_9">
     <g id="line2d_16">
      <g>
       <use style="stroke:#000000;stroke-width:0.8;" x="417.405208" xlink:href="#m43d53e1645" y="256.2"/>
      </g>
     </g>
     <g id="text_17">
      <!-- 8h -->
      <g transform="translate(408.515208 273.837812)scale(0.14 -0.14)">
       <use xlink:href="#DejaVuSans-56"/>
       <use x="63.623047" xlink:href="#DejaVuSans-104"/>
      </g>
     </g>
    </g>
    <g id="xtick_10">
     <g id="line2d_17">
      <g>
       <use style="stroke:#000000;stroke-width:0.8;" x="458.632292" xlink:href="#m43d53e1645" y="256.2"/>
      </g>
     </g>
     <g id="text_18">
      <!-- 12h -->
      <g transform="translate(445.288542 273.837812)scale(0.14 -0.14)">
       <use xlink:href="#DejaVuSans-49"/>
       <use x="63.623047" xlink:href="#DejaVuSans-50"/>
       <use x="127.246094" xlink:href="#DejaVuSans-104"/>
      </g>
     </g>
    </g>
    <g id="xtick_11">
     <g id="line2d_18">
      <g>
       <use style="stroke:#000000;stroke-width:0.8;" x="499.859375" xlink:href="#m43d53e1645" y="256.2"/>
      </g>
     </g>
     <g id="text_19">
      <!-- 16h -->
      <g transform="translate(486.515625 273.837812)scale(0.14 -0.14)">
       <use xlink:href="#DejaVuSans-49"/>
       <use x="63.623047" xlink:href="#DejaVuSans-54"/>
       <use x="127.246094" xlink:href="#DejaVuSans-104"/>
      </g>
     </g>
    </g>
    <g id="xtick_12">
     <g id="line2d_19">
      <g>
       <use style="stroke:#000000;stroke-width:0.8;" x="541.086458" xlink:href="#m43d53e1645" y="256.2"/>
      </g>
     </g>
     <g id="text_20">
      <!-- 20h -->
      <g transform="translate(527.742708 273.837812)scale(0.14 -0.14)">
       <use xlink:href="#DejaVuSans-50"/>
       <use x="63.623047" xlink:href="#DejaVuSans-48"/>
       <use x="127.246094" xlink:href="#DejaVuSans-104"/>
      </g>
     </g>
    </g>
   </g>
   <g id="matplotlib.axis_4"/>
   <g id="text_21">
    <!-- up-1h, down-4h -->
    <defs>
     <path d="M 18.109375 8.203125 
L 18.109375 -20.796875 
L 9.078125 -20.796875 
L 9.078125 54.6875 
L 18.109375 54.6875 
L 18.109375 46.390625 
Q 20.953125 51.265625 25.265625 53.625 
Q 29.59375 56 35.59375 56 
Q 45.5625 56 51.78125 48.09375 
Q 58.015625 40.1875 58.015625 27.296875 
Q 58.015625 14.40625 51.78125 6.484375 
Q 45.5625 -1.421875 35.59375 -1.421875 
Q 29.59375 -1.421875 25.265625 0.953125 
Q 20.953125 3.328125 18.109375 8.203125 
z
M 48.6875 27.296875 
Q 48.6875 37.203125 44.609375 42.84375 
Q 40.53125 48.484375 33.40625 48.484375 
Q 26.265625 48.484375 22.1875 42.84375 
Q 18.109375 37.203125 18.109375 27.296875 
Q 18.109375 17.390625 22.1875 11.75 
Q 26.265625 6.109375 33.40625 6.109375 
Q 40.53125 6.109375 44.609375 11.75 
Q 48.6875 17.390625 48.6875 27.296875 
z
" id="DejaVuSans-112"/>
     <path d="M 11.71875 12.40625 
L 22.015625 12.40625 
L 22.015625 4 
L 14.015625 -11.625 
L 7.71875 -11.625 
L 11.71875 4 
z
" id="DejaVuSans-44"/>
     <path id="DejaVuSans-32"/>
    </defs>
    <g transform="translate(375.10625 22.8)scale(0.16 -0.16)">
     <use xlink:href="#DejaVuSans-117"/>
     <use x="63.378906" xlink:href="#DejaVuSans-112"/>
     <use x="126.855469" xlink:href="#DejaVuSans-45"/>
     <use x="162.939453" xlink:href="#DejaVuSans-49"/>
     <use x="226.5625" xlink:href="#DejaVuSans-104"/>
     <use x="289.941406" xlink:href="#DejaVuSans-44"/>
     <use x="321.728516" xlink:href="#DejaVuSans-32"/>
     <use x="353.515625" xlink:href="#DejaVuSans-100"/>
     <use x="416.992188" xlink:href="#DejaVuSans-111"/>
     <use x="478.173828" xlink:href="#DejaVuSans-119"/>
     <use x="559.960938" xlink:href="#DejaVuSans-110"/>
     <use x="623.339844" xlink:href="#DejaVuSans-45"/>
     <use x="659.423828" xlink:href="#DejaVuSans-52"/>
     <use x="723.046875" xlink:href="#DejaVuSans-104"/>
    </g>
   </g>
  </g>
 </g>
 <defs>
  <clipPath id="pe41915c39c">
   <rect height="227.4" width="247.3625" x="49.175" y="28.8"/>
  </clipPath>
  <clipPath id="p17de25de3d">
   <rect height="227.4" width="247.3625" x="314.3375" y="28.8"/>
  </clipPath>
 </defs>
</svg>
